<?xml version="1.0" encoding="utf-8"?>
<!-- Generator: Adobe Illustrator 23.0.1, SVG Export Plug-In . SVG Version: 6.00 Build 0)  -->
<svg version="1.1" id="Layer_1" xmlns="http://www.w3.org/2000/svg" xmlns:xlink="http://www.w3.org/1999/xlink" x="0px" y="0px"
	 viewBox="0 0 987 311" style="enable-background:new 0 0 987 311;" xml:space="preserve">
<style type="text/css">
	.st0{fill:#333333;}
	.st1{fill:#151515;}
	.st2{fill:#8CCC3F;}
	.st3{fill:#40D1D1;}
	.st4{fill:#DD3333;}
	.st5{clip-path:url(#SVGID_2_);fill:#5045E6;}
	.st6{fill-rule:evenodd;clip-rule:evenodd;fill:#3C3CD6;}
	.st7{fill-rule:evenodd;clip-rule:evenodd;fill:#5045E6;}
	.st8{clip-path:url(#SVGID_4_);fill:#5045E6;}
	.st9{fill-rule:evenodd;clip-rule:evenodd;fill:#8CCC3F;}
	.st10{fill-rule:evenodd;clip-rule:evenodd;fill:#40D1D1;}
	.st11{fill:#5045E6;}
</style>
<g>
	<g>
		<path class="st0" d="M302.4,299.1c-0.4,0-0.7-0.1-0.9-0.3c-0.2-0.2-0.3-0.5-0.3-0.9v-34.4c0-0.4,0.1-0.7,0.3-0.9
			c0.2-0.2,0.5-0.3,0.9-0.3h12c3.6,0,6.5,0.5,8.8,1.6s3.8,2.7,4.8,4.8c1,2.1,1.5,4.7,1.6,7.8c0,1.6,0,3,0,4.2s0,2.6,0,4.1
			c-0.1,3.2-0.6,5.9-1.6,8s-2.6,3.7-4.7,4.7s-5,1.5-8.6,1.5L302.4,299.1L302.4,299.1z M306.4,294.6h8c2.4,0,4.4-0.3,5.8-1
			s2.5-1.7,3.1-3.2c0.7-1.5,1-3.4,1-5.8c0.1-1,0.1-2,0.1-2.8s0-1.6,0-2.4s0-1.7-0.1-2.7c-0.1-3.4-0.9-5.9-2.4-7.6
			c-1.5-1.6-4.1-2.5-7.8-2.5h-7.8L306.4,294.6L306.4,294.6z"/>
		<path class="st0" d="M338.8,299.1c-0.4,0-0.7-0.1-0.9-0.3c-0.2-0.2-0.3-0.5-0.3-0.9v-34.4c0-0.4,0.1-0.7,0.3-0.9s0.5-0.3,0.9-0.3
			h21.8c0.4,0,0.7,0.1,0.9,0.3c0.2,0.2,0.3,0.5,0.3,0.9v2c0,0.4-0.1,0.7-0.3,0.9s-0.5,0.3-0.9,0.3h-17.9v11.5h16.8
			c0.4,0,0.7,0.1,0.9,0.3c0.2,0.2,0.3,0.5,0.3,0.9v2c0,0.3-0.1,0.6-0.3,0.9s-0.5,0.3-0.9,0.3h-16.8v12h18.3c0.4,0,0.7,0.1,0.9,0.3
			s0.3,0.5,0.3,0.9v2.1c0,0.3-0.1,0.6-0.3,0.9s-0.5,0.3-0.9,0.3L338.8,299.1L338.8,299.1z"/>
		<path class="st0" d="M382.4,299.6c-3.2,0-5.9-0.6-8-1.8s-3.7-2.9-4.8-5c-1.1-2.1-1.7-4.6-1.8-7.5c0-1.4,0-3,0-4.6s0-3.2,0-4.7
			c0.1-2.8,0.7-5.3,1.8-7.5c1.1-2.1,2.7-3.8,4.8-5c2.1-1.2,4.8-1.8,8-1.8c2.4,0,4.5,0.3,6.4,1s3.3,1.6,4.6,2.7s2.1,2.4,2.8,3.8
			c0.6,1.4,1,2.8,1,4.3c0,0.3-0.1,0.6-0.3,0.8c-0.2,0.2-0.5,0.3-0.8,0.3h-2.9c-0.3,0-0.6-0.1-0.8-0.3s-0.4-0.5-0.5-1
			c-0.6-2.7-1.7-4.6-3.3-5.6c-1.6-1-3.7-1.5-6.1-1.5c-2.8,0-5.1,0.8-6.8,2.4c-1.7,1.6-2.5,4.2-2.6,7.7c-0.1,2.9-0.1,5.8,0,8.9
			c0.1,3.5,1,6.1,2.6,7.7c1.7,1.6,3.9,2.4,6.8,2.4c2.4,0,4.5-0.5,6.1-1.5c1.6-1,2.8-2.9,3.3-5.6c0.1-0.5,0.3-0.8,0.5-1
			s0.5-0.3,0.8-0.3h2.9c0.3,0,0.6,0.1,0.8,0.3s0.3,0.5,0.3,0.8c-0.1,1.5-0.4,2.9-1,4.3c-0.6,1.4-1.5,2.7-2.8,3.8
			c-1.2,1.1-2.7,2-4.6,2.7C387,299.3,384.8,299.6,382.4,299.6z"/>
		<path class="st0" d="M417.5,299.6c-3,0-5.6-0.5-7.8-1.6s-3.8-2.6-5-4.8c-1.2-2.2-1.8-4.9-2-8.1c0-1.5,0-3,0-4.5s0-2.9,0-4.5
			c0.1-3.2,0.8-5.9,2-8.1c1.2-2.2,2.9-3.8,5.1-4.8s4.7-1.6,7.6-1.6c2.8,0,5.3,0.5,7.5,1.6c2.2,1.1,3.9,2.7,5.1,4.8s1.9,4.9,2,8.1
			c0.1,1.5,0.1,3,0.1,4.5c0,1.4,0,2.9-0.1,4.5c-0.1,3.3-0.8,6-1.9,8.1c-1.2,2.2-2.8,3.8-5,4.8S420.5,299.6,417.5,299.6z
			 M417.5,295.1c2.7,0,4.9-0.8,6.6-2.4c1.7-1.6,2.6-4.2,2.8-7.8c0.1-1.6,0.1-3,0.1-4.2s0-2.6-0.1-4.2c-0.1-2.4-0.5-4.4-1.3-5.9
			c-0.8-1.5-1.9-2.6-3.3-3.3s-2.9-1-4.7-1s-3.3,0.3-4.7,1s-2.5,1.8-3.3,3.3c-0.8,1.5-1.3,3.5-1.4,5.9c0,1.5,0,2.9,0,4.2s0,2.7,0,4.2
			c0.1,3.6,1.1,6.2,2.8,7.8S414.8,295.1,417.5,295.1z"/>
		<path class="st0" d="M441.1,299.1c-0.4,0-0.7-0.1-0.9-0.3c-0.2-0.2-0.3-0.5-0.3-0.9v-34.4c0-0.4,0.1-0.7,0.3-0.9s0.5-0.3,0.9-0.3
			h12c3.6,0,6.5,0.5,8.8,1.6s3.8,2.7,4.8,4.8c1,2.1,1.5,4.7,1.6,7.8c0,1.6,0,3,0,4.2s0,2.6,0,4.1c-0.1,3.2-0.6,5.9-1.6,8
			s-2.6,3.7-4.7,4.7s-5,1.5-8.6,1.5L441.1,299.1L441.1,299.1z M445.1,294.6h8c2.4,0,4.4-0.3,5.8-1s2.5-1.7,3.1-3.2
			c0.7-1.5,1-3.4,1-5.8c0.1-1,0.1-2,0.1-2.8s0-1.6,0-2.4s0-1.7-0.1-2.7c-0.1-3.4-0.9-5.9-2.4-7.6c-1.5-1.6-4.2-2.5-7.8-2.5h-7.8
			L445.1,294.6L445.1,294.6z"/>
		<path class="st0" d="M477.4,299.1c-0.4,0-0.7-0.1-0.9-0.3c-0.2-0.2-0.3-0.5-0.3-0.9v-34.4c0-0.4,0.1-0.7,0.3-0.9s0.5-0.3,0.9-0.3
			h21.8c0.4,0,0.7,0.1,0.9,0.3c0.2,0.2,0.3,0.5,0.3,0.9v2c0,0.4-0.1,0.7-0.3,0.9s-0.5,0.3-0.9,0.3h-17.9v11.5h16.8
			c0.4,0,0.7,0.1,0.9,0.3c0.2,0.2,0.3,0.5,0.3,0.9v2c0,0.3-0.1,0.6-0.3,0.9s-0.5,0.3-0.9,0.3h-16.8v12h18.3c0.4,0,0.7,0.1,0.9,0.3
			s0.3,0.5,0.3,0.9v2.1c0,0.3-0.1,0.6-0.3,0.9s-0.5,0.3-0.9,0.3L477.4,299.1L477.4,299.1z"/>
		<path class="st0" d="M508.3,299.1c-0.3,0-0.6-0.1-0.9-0.3c-0.2-0.2-0.3-0.5-0.3-0.9v-3.8c0-0.3,0.1-0.6,0.3-0.9
			c0.2-0.2,0.5-0.3,0.9-0.3h3.8c0.3,0,0.7,0.1,0.9,0.3c0.3,0.2,0.4,0.5,0.4,0.9v3.8c0,0.3-0.1,0.6-0.4,0.9s-0.5,0.3-0.9,0.3H508.3z"
			/>
		<path class="st0" d="M535.6,299.1c-0.4,0-0.7-0.1-0.9-0.3c-0.2-0.2-0.3-0.5-0.3-0.9v-34.4c0-0.4,0.1-0.7,0.3-0.9s0.5-0.3,0.9-0.3
			H549c2.6,0,4.9,0.4,6.8,1.3c1.9,0.8,3.4,2.1,4.5,3.8c1,1.7,1.6,3.8,1.6,6.3s-0.5,4.6-1.6,6.2c-1,1.7-2.5,2.9-4.5,3.7
			c-1.9,0.8-4.2,1.3-6.8,1.3h-9.3v13.2c0,0.3-0.1,0.6-0.3,0.9c-0.2,0.2-0.5,0.3-0.9,0.3L535.6,299.1L535.6,299.1z M539.6,280.3h9.1
			c2.6,0,4.5-0.6,5.8-1.7s2-2.8,2-5.1c0-2.2-0.6-3.9-1.9-5.1s-3.2-1.8-5.9-1.8h-9.1L539.6,280.3L539.6,280.3z"/>
		<path class="st0" d="M569.4,299.1c-0.4,0-0.7-0.1-0.9-0.3c-0.2-0.2-0.3-0.5-0.3-0.9v-34.4c0-0.4,0.1-0.7,0.3-0.9s0.5-0.3,0.9-0.3
			h12.9c4,0,7.1,0.9,9.4,2.8s3.5,4.6,3.5,8.3c0,2.7-0.7,4.9-2,6.6c-1.3,1.7-3.2,2.9-5.5,3.6l8.1,14c0.1,0.2,0.2,0.4,0.2,0.6
			c0,0.3-0.1,0.5-0.3,0.7c-0.2,0.2-0.5,0.3-0.8,0.3h-2.5c-0.6,0-1-0.2-1.3-0.5c-0.3-0.3-0.5-0.6-0.7-1l-7.6-13.4h-9.2v13.6
			c0,0.3-0.1,0.6-0.3,0.9c-0.2,0.2-0.5,0.3-0.9,0.3L569.4,299.1L569.4,299.1z M573.4,279.8h8.7c2.6,0,4.6-0.5,5.9-1.7
			c1.3-1.1,2-2.8,2-4.9c0-2.1-0.6-3.8-1.9-4.9c-1.3-1.1-3.3-1.7-5.9-1.7h-8.7L573.4,279.8L573.4,279.8z"/>
		<path class="st0" d="M604,299.1c-0.4,0-0.7-0.1-0.9-0.3c-0.2-0.2-0.3-0.5-0.3-0.9v-34.4c0-0.4,0.1-0.7,0.3-0.9s0.5-0.3,0.9-0.3
			h21.8c0.4,0,0.7,0.1,0.9,0.3c0.2,0.2,0.3,0.5,0.3,0.9v2c0,0.4-0.1,0.7-0.3,0.9s-0.5,0.3-0.9,0.3h-17.9v11.5h16.8
			c0.4,0,0.7,0.1,0.9,0.3c0.2,0.2,0.3,0.5,0.3,0.9v2c0,0.3-0.1,0.6-0.3,0.9s-0.5,0.3-0.9,0.3h-16.8v12h18.3c0.4,0,0.7,0.1,0.9,0.3
			s0.3,0.5,0.3,0.9v2.1c0,0.3-0.1,0.6-0.3,0.9s-0.5,0.3-0.9,0.3L604,299.1L604,299.1z"/>
		<path class="st0" d="M635.9,299.1c-0.4,0-0.7-0.1-0.9-0.3c-0.2-0.2-0.3-0.5-0.3-0.9v-34.4c0-0.4,0.1-0.7,0.3-0.9s0.5-0.3,0.9-0.3
			h12c3.6,0,6.5,0.5,8.8,1.6s3.8,2.7,4.8,4.8c1,2.1,1.5,4.7,1.6,7.8c0,1.6,0,3,0,4.2s0,2.6,0,4.1c-0.1,3.2-0.6,5.9-1.6,8
			s-2.6,3.7-4.7,4.7s-5,1.5-8.6,1.5L635.9,299.1L635.9,299.1z M639.8,294.6h8c2.4,0,4.4-0.3,5.8-1s2.5-1.7,3.1-3.2
			c0.7-1.5,1-3.4,1-5.8c0.1-1,0.1-2,0.1-2.8s0-1.6,0-2.4s0-1.7-0.1-2.7c-0.1-3.4-0.9-5.9-2.4-7.6c-1.5-1.6-4.2-2.5-7.8-2.5h-7.8
			L639.8,294.6L639.8,294.6z"/>
		<path class="st0" d="M672.2,299.1c-0.4,0-0.7-0.1-0.9-0.3c-0.2-0.2-0.3-0.5-0.3-0.9v-34.5c0-0.3,0.1-0.6,0.3-0.9s0.5-0.3,0.9-0.3
			h2.8c0.4,0,0.7,0.1,0.9,0.3c0.2,0.2,0.3,0.5,0.3,0.9v34.5c0,0.3-0.1,0.6-0.3,0.9s-0.5,0.3-0.9,0.3L672.2,299.1L672.2,299.1z"/>
		<path class="st0" d="M698.7,299.6c-3.2,0-5.9-0.6-8-1.8s-3.7-2.9-4.8-5c-1.1-2.1-1.7-4.6-1.8-7.5c0-1.4,0-3,0-4.6s0-3.2,0-4.7
			c0.1-2.8,0.7-5.3,1.8-7.5c1.1-2.1,2.7-3.8,4.8-5c2.1-1.2,4.8-1.8,8-1.8c2.4,0,4.5,0.3,6.4,1s3.3,1.6,4.6,2.7s2.1,2.4,2.8,3.8
			c0.6,1.4,1,2.8,1,4.3c0,0.3-0.1,0.6-0.3,0.8c-0.2,0.2-0.5,0.3-0.8,0.3h-2.9c-0.3,0-0.6-0.1-0.8-0.3s-0.4-0.5-0.5-1
			c-0.6-2.7-1.7-4.6-3.3-5.6c-1.6-1-3.7-1.5-6.1-1.5c-2.8,0-5.1,0.8-6.8,2.4c-1.7,1.6-2.5,4.2-2.6,7.7c-0.1,2.9-0.1,5.8,0,8.9
			c0.1,3.5,1,6.1,2.6,7.7c1.7,1.6,3.9,2.4,6.8,2.4c2.4,0,4.5-0.5,6.1-1.5c1.6-1,2.8-2.9,3.3-5.6c0.1-0.5,0.3-0.8,0.5-1
			s0.5-0.3,0.8-0.3h2.9c0.3,0,0.6,0.1,0.8,0.3s0.3,0.5,0.3,0.8c-0.1,1.5-0.4,2.9-1,4.3c-0.6,1.4-1.5,2.7-2.8,3.8
			c-1.2,1.1-2.7,2-4.6,2.7C703.2,299.3,701.1,299.6,698.7,299.6z"/>
		<path class="st0" d="M729.8,299.1c-0.3,0-0.6-0.1-0.9-0.3c-0.2-0.2-0.3-0.5-0.3-0.9v-31h-10.1c-0.3,0-0.6-0.1-0.9-0.3
			c-0.2-0.2-0.3-0.5-0.3-0.9v-2.2c0-0.4,0.1-0.7,0.3-0.9c0.2-0.2,0.5-0.3,0.9-0.3h25.4c0.4,0,0.7,0.1,0.9,0.3
			c0.2,0.2,0.3,0.5,0.3,0.9v2.2c0,0.3-0.1,0.6-0.3,0.9c-0.2,0.2-0.5,0.3-0.9,0.3h-10.1v31c0,0.3-0.1,0.6-0.3,0.9
			c-0.2,0.2-0.5,0.3-0.9,0.3H729.8z"/>
		<path class="st0" d="M747.8,299.1c-0.3,0-0.6-0.1-0.9-0.3c-0.2-0.2-0.3-0.5-0.3-0.9v-3.8c0-0.3,0.1-0.6,0.3-0.9
			c0.2-0.2,0.5-0.3,0.9-0.3h3.8c0.3,0,0.7,0.1,0.9,0.3c0.3,0.2,0.4,0.5,0.4,0.9v3.8c0,0.3-0.1,0.6-0.4,0.9s-0.5,0.3-0.9,0.3H747.8z"
			/>
		<path class="st0" d="M787.1,299.6c-3.2,0-5.9-0.6-8-1.8s-3.7-2.9-4.8-5c-1.1-2.1-1.7-4.6-1.8-7.5c0-1.4,0-3,0-4.6s0-3.2,0-4.7
			c0.1-2.8,0.7-5.3,1.8-7.5c1.1-2.1,2.7-3.8,4.8-5c2.1-1.2,4.8-1.8,8-1.8c2.4,0,4.5,0.3,6.4,1s3.3,1.6,4.6,2.7s2.1,2.4,2.8,3.8
			c0.6,1.4,1,2.8,1,4.3c0,0.3-0.1,0.6-0.3,0.8c-0.2,0.2-0.5,0.3-0.8,0.3h-2.9c-0.3,0-0.6-0.1-0.8-0.3s-0.4-0.5-0.5-1
			c-0.6-2.7-1.7-4.6-3.3-5.6c-1.6-1-3.7-1.5-6.1-1.5c-2.8,0-5.1,0.8-6.8,2.4c-1.7,1.6-2.5,4.2-2.6,7.7c-0.1,2.9-0.1,5.8,0,8.9
			c0.1,3.5,1,6.1,2.6,7.7c1.7,1.6,3.9,2.4,6.8,2.4c2.4,0,4.5-0.5,6.1-1.5c1.6-1,2.8-2.9,3.3-5.6c0.1-0.5,0.3-0.8,0.5-1
			s0.5-0.3,0.8-0.3h2.9c0.3,0,0.6,0.1,0.8,0.3s0.3,0.5,0.3,0.8c-0.1,1.5-0.4,2.9-1,4.3c-0.6,1.4-1.5,2.7-2.8,3.8
			c-1.2,1.1-2.7,2-4.6,2.7C791.7,299.3,789.5,299.6,787.1,299.6z"/>
		<path class="st0" d="M810.2,299.1c-0.4,0-0.7-0.1-0.9-0.3c-0.2-0.2-0.3-0.5-0.3-0.9v-34.4c0-0.4,0.1-0.7,0.3-0.9s0.5-0.3,0.9-0.3
			H823c4,0,7.1,0.9,9.4,2.8s3.5,4.6,3.5,8.3c0,2.7-0.7,4.9-2,6.6s-3.2,2.9-5.5,3.6l8.1,14c0.1,0.2,0.2,0.4,0.2,0.6
			c0,0.3-0.1,0.5-0.3,0.7c-0.2,0.2-0.5,0.3-0.8,0.3H833c-0.6,0-1-0.2-1.3-0.5c-0.3-0.3-0.5-0.6-0.7-1l-7.6-13.4h-9.2v13.6
			c0,0.3-0.1,0.6-0.3,0.9c-0.2,0.2-0.5,0.3-0.9,0.3L810.2,299.1L810.2,299.1z M814.1,279.8h8.7c2.6,0,4.6-0.5,5.9-1.7
			c1.3-1.1,2-2.8,2-4.9c0-2.1-0.6-3.8-1.9-4.9c-1.3-1.1-3.3-1.7-5.9-1.7h-8.7L814.1,279.8L814.1,279.8z"/>
		<path class="st0" d="M844.7,299.1c-0.4,0-0.7-0.1-0.9-0.3c-0.2-0.2-0.3-0.5-0.3-0.9v-34.4c0-0.4,0.1-0.7,0.3-0.9s0.5-0.3,0.9-0.3
			h21.8c0.4,0,0.7,0.1,0.9,0.3c0.2,0.2,0.3,0.5,0.3,0.9v2c0,0.4-0.1,0.7-0.3,0.9s-0.5,0.3-0.9,0.3h-17.9v11.5h16.8
			c0.4,0,0.7,0.1,0.9,0.3c0.2,0.2,0.3,0.5,0.3,0.9v2c0,0.3-0.1,0.6-0.3,0.9s-0.5,0.3-0.9,0.3h-16.8v12h18.3c0.4,0,0.7,0.1,0.9,0.3
			s0.3,0.5,0.3,0.9v2.1c0,0.3-0.1,0.6-0.3,0.9s-0.5,0.3-0.9,0.3L844.7,299.1L844.7,299.1z"/>
		<path class="st0" d="M872.9,299.1c-0.3,0-0.5-0.1-0.7-0.3s-0.3-0.5-0.3-0.7c0-0.2,0-0.4,0.1-0.6l13.1-34.1
			c0.1-0.3,0.3-0.6,0.6-0.8s0.6-0.3,1.1-0.3h3.6c0.5,0,0.9,0.1,1.1,0.3s0.4,0.5,0.6,0.8l13,34.1c0.1,0.2,0.1,0.4,0.1,0.6
			c0,0.3-0.1,0.5-0.3,0.7s-0.5,0.3-0.7,0.3h-2.7c-0.4,0-0.7-0.1-0.9-0.3c-0.2-0.2-0.3-0.4-0.4-0.6l-2.9-7.5h-17.3l-2.9,7.5
			c0,0.2-0.2,0.4-0.4,0.6s-0.5,0.3-0.9,0.3H872.9z M881.4,286.2h14.2l-7.1-18.7L881.4,286.2z"/>
		<path class="st0" d="M916.1,299.1c-0.3,0-0.6-0.1-0.9-0.3c-0.2-0.2-0.3-0.5-0.3-0.9v-31h-10.1c-0.3,0-0.6-0.1-0.9-0.3
			c-0.2-0.2-0.3-0.5-0.3-0.9v-2.2c0-0.4,0.1-0.7,0.3-0.9s0.5-0.3,0.9-0.3h25.4c0.4,0,0.7,0.1,0.9,0.3c0.2,0.2,0.3,0.5,0.3,0.9v2.2
			c0,0.3-0.1,0.6-0.3,0.9s-0.5,0.3-0.9,0.3h-10.1v31c0,0.3-0.1,0.6-0.3,0.9c-0.2,0.2-0.5,0.3-0.9,0.3H916.1z"/>
		<path class="st0" d="M938.6,299.1c-0.4,0-0.7-0.1-0.9-0.3c-0.2-0.2-0.3-0.5-0.3-0.9v-34.4c0-0.4,0.1-0.7,0.3-0.9s0.5-0.3,0.9-0.3
			h21.8c0.4,0,0.7,0.1,0.9,0.3c0.2,0.2,0.3,0.5,0.3,0.9v2c0,0.4-0.1,0.7-0.3,0.9s-0.5,0.3-0.9,0.3h-17.9v11.5h16.8
			c0.4,0,0.7,0.1,0.9,0.3c0.2,0.2,0.3,0.5,0.3,0.9v2c0,0.3-0.1,0.6-0.3,0.9s-0.5,0.3-0.9,0.3h-16.8v12h18.3c0.4,0,0.7,0.1,0.9,0.3
			s0.3,0.5,0.3,0.9v2.1c0,0.3-0.1,0.6-0.3,0.9s-0.5,0.3-0.9,0.3L938.6,299.1L938.6,299.1z"/>
		<path class="st0" d="M969.5,299.1c-0.3,0-0.6-0.1-0.9-0.3c-0.2-0.2-0.3-0.5-0.3-0.9v-3.8c0-0.3,0.1-0.6,0.3-0.9s0.5-0.3,0.9-0.3
			h3.8c0.3,0,0.7,0.1,0.9,0.3c0.3,0.2,0.4,0.5,0.4,0.9v3.8c0,0.3-0.1,0.6-0.4,0.9s-0.5,0.3-0.9,0.3H969.5z"/>
	</g>
	<path class="st1" d="M433.4,226.7c-15.3,0-27.5-4.4-36.5-13.3c-9-8.8-13.8-21.4-14.5-37.7c-0.1-1.4-0.2-3.1-0.2-5.3
		c0-2.1,0.1-3.8,0.2-5.1c0.5-10.5,2.9-19.5,7.2-27c4.2-7.5,10-13.3,17.5-17.4c7.5-4.1,16.2-6.1,26.3-6.1c11.2,0,20.6,2.3,28.2,6.9
		s13.3,11.1,17.2,19.3c3.9,8.2,5.8,17.7,5.8,28.5v4.3c0,1.4-0.5,2.6-1.5,3.5c-1,1-2.2,1.5-3.7,1.5h-68.8c0,0.8,0,1.4,0,1.7
		c0.1,4.8,1.1,9.3,2.8,13.4c1.7,4.1,4.3,7.4,7.7,9.8c3.4,2.5,7.4,3.7,12.1,3.7c3.9,0,7.1-0.6,9.7-1.8c2.6-1.2,4.8-2.5,6.4-4
		c1.7-1.5,2.8-2.8,3.5-3.7c1.2-1.7,2.2-2.7,3-3c0.8-0.3,1.9-0.5,3.4-0.5h17.8c1.4,0,2.5,0.4,3.4,1.2c0.9,0.8,1.3,1.9,1.1,3.1
		c-0.1,2.2-1.3,4.9-3.4,8.1c-2.1,3.2-5.2,6.3-9.2,9.3c-4,3-9,5.6-15,7.6C448,225.7,441.1,226.7,433.4,226.7z M410.6,161.4h45.8v-0.6
		c0-5.4-0.9-10.1-2.7-14.2c-1.8-4.1-4.4-7.3-7.9-9.5s-7.6-3.4-12.4-3.4s-9,1.1-12.4,3.4c-3.5,2.3-6,5.5-7.8,9.5
		c-1.7,4.1-2.6,8.8-2.6,14.2L410.6,161.4L410.6,161.4z"/>
	<path class="st1" d="M553,226.7c-15.3,0-27.5-4.4-36.5-13.3c-9-8.8-13.8-21.4-14.5-37.7c-0.1-1.4-0.2-3.1-0.2-5.3
		c0-2.1,0.1-3.8,0.2-5.1c0.5-10.5,2.9-19.5,7.2-27c4.2-7.5,10-13.3,17.5-17.4c7.5-4.1,16.2-6.1,26.3-6.1c11.2,0,20.6,2.3,28.2,6.9
		s13.3,11.1,17.2,19.3c3.9,8.2,5.8,17.7,5.8,28.5v4.3c0,1.4-0.5,2.6-1.5,3.5c-1,1-2.2,1.5-3.7,1.5h-68.8c0,0.8,0,1.4,0,1.7
		c0.1,4.8,1.1,9.3,2.8,13.4c1.7,4.1,4.3,7.4,7.7,9.8c3.4,2.5,7.4,3.7,12.1,3.7c3.9,0,7.1-0.6,9.7-1.8c2.6-1.2,4.8-2.5,6.4-4
		c1.7-1.5,2.8-2.8,3.5-3.7c1.2-1.7,2.2-2.7,3-3c0.8-0.3,1.9-0.5,3.4-0.5h17.8c1.4,0,2.5,0.4,3.4,1.2c0.9,0.8,1.3,1.9,1.1,3.1
		c-0.1,2.2-1.3,4.9-3.4,8.1c-2.1,3.2-5.2,6.3-9.2,9.3c-4,3-9,5.6-15,7.6C567.6,225.7,560.7,226.7,553,226.7z M530.2,161.4H576v-0.6
		c0-5.4-0.9-10.1-2.7-14.2c-1.8-4.1-4.4-7.3-7.9-9.5s-7.6-3.4-12.4-3.4s-9,1.1-12.4,3.4c-3.5,2.3-6,5.5-7.8,9.5
		c-1.7,4.1-2.6,8.8-2.6,14.2L530.2,161.4L530.2,161.4z"/>
	<path class="st1" d="M631.1,224.6c-1.4,0-2.6-0.5-3.5-1.5c-1-1-1.5-2.1-1.5-3.5V122c0-1.5,0.5-2.8,1.5-3.7c1-1,2.1-1.5,3.5-1.5
		h16.8c1.4,0,2.6,0.5,3.6,1.5c1,1,1.5,2.2,1.5,3.7v8.5c3.2-4.4,7.3-7.8,12.3-10.2c5-2.3,10.9-3.5,17.5-3.5h8.5
		c1.5,0,2.7,0.5,3.6,1.5c0.9,1,1.3,2.2,1.3,3.5v14.9c0,1.4-0.5,2.6-1.3,3.5c-0.9,1-2.1,1.5-3.6,1.5h-16.2c-6.6,0-11.8,1.8-15.4,5.5
		s-5.5,8.8-5.5,15.4v57c0,1.4-0.5,2.6-1.5,3.5c-1,1-2.2,1.5-3.7,1.5L631.1,224.6L631.1,224.6z"/>
	<path class="st1" d="M805.5,224.6c-2.2,0-3.8-0.5-4.9-1.6c-1-1-1.9-2.2-2.6-3.6l-38.8-96.2c-0.3-0.7-0.4-1.3-0.4-1.9
		c0-1.2,0.5-2.3,1.3-3.2c0.9-0.9,2-1.3,3.2-1.3h16.8c1.7,0,2.9,0.5,3.7,1.3c0.8,0.9,1.4,1.8,1.7,2.6l27.6,72.8l27.6-72.8
		c0.3-0.8,0.8-1.7,1.7-2.6c0.8-0.9,2.1-1.3,3.7-1.3h17c1.1,0,2.1,0.5,3,1.3c0.9,0.9,1.3,2,1.3,3.2c0,0.5-0.1,1.2-0.2,1.9l-39,96.2
		c-0.5,1.4-1.4,2.6-2.5,3.6s-2.8,1.6-5,1.6H805.5z"/>
	<path class="st1" d="M928.8,226.7c-15.3,0-27.5-4.4-36.5-13.3c-9-8.8-13.8-21.4-14.5-37.7c-0.1-1.4-0.2-3.1-0.2-5.3
		c0-2.1,0.1-3.8,0.2-5.1c0.6-10.5,2.9-19.5,7.2-27c4.2-7.5,10.1-13.3,17.5-17.4c7.5-4.1,16.2-6.1,26.3-6.1c11.2,0,20.6,2.3,28.2,6.9
		s13.3,11.1,17.2,19.3c3.9,8.2,5.8,17.7,5.8,28.5v4.3c0,1.4-0.5,2.6-1.4,3.5c-1,1-2.2,1.5-3.7,1.5H906c0,0.8,0,1.4,0,1.7
		c0.1,4.8,1.1,9.3,2.8,13.4c1.7,4.1,4.3,7.4,7.7,9.8c3.4,2.5,7.4,3.7,12.1,3.7c3.9,0,7.1-0.6,9.7-1.8c2.6-1.2,4.8-2.5,6.4-4
		c1.7-1.5,2.8-2.8,3.5-3.7c1.2-1.7,2.2-2.7,3-3c0.8-0.3,1.9-0.5,3.4-0.5h17.8c1.4,0,2.5,0.4,3.4,1.2c0.9,0.8,1.3,1.9,1.1,3.1
		c-0.1,2.2-1.3,4.9-3.4,8.1c-2.1,3.2-5.2,6.3-9.2,9.3c-4,3-9,5.6-15,7.6C943.4,225.7,936.5,226.7,928.8,226.7z M906,161.4h45.8v-0.6
		c0-5.4-0.9-10.1-2.7-14.2c-1.8-4.1-4.4-7.3-7.9-9.5s-7.6-3.4-12.4-3.4s-9,1.1-12.4,3.4c-3.5,2.3-6.1,5.5-7.8,9.5
		c-1.7,4.1-2.6,8.8-2.6,14.2L906,161.4L906,161.4z"/>
	<path class="st2" d="M708.7,21.6c5.8-3.4,11.6-6.8,17.4-10.2c8.7,5,17.2,10.2,25.9,15.2c0,3.6,0,7.3,0,10.9
		c-8.7-5-17.2-10.3-25.9-15.2c-5.5,3.2-10.9,6.5-16.4,9.6c-0.2,6.6-0.1,13.3-0.1,19.9c5.1,3,10.3,5.8,15.2,9c-0.1,3.5,0,7.1,0,10.7
		c-8.2-4.8-16.4-9.6-24.6-14.5c0-10.1,0-20.2,0-30.2"/>
	<path class="st3" d="M715.4,49.8c8.6-5.2,17.3-10.2,25.9-15.3c8.7,5,17.3,10.2,26,15.3c-0.1,10.1,0,20.3,0,30.4
		c-8.7,5.1-17.3,10.2-25.9,15.3c-4.1-2.6-8.4-4.8-12.5-7.5c3.1-1.8,6.1-3.7,9.2-5.3c1.1,0.7,2.2,1.3,3.2,1.9
		c5.5-3.2,11-6.3,16.4-9.7c0.7-2.9,0.2-5.9,0.3-8.9c-0.1-3.7,0.2-7.4-0.2-11.1c-5.6-3-10.9-6.5-16.5-9.5c-5.5,3.3-10.9,6.5-16.5,9.7
		c0,0.8,0,1.7,0,2.5c-3.1-1.8-6.2-3.6-9.3-5.4C715.5,51.5,715.4,50.4,715.4,49.8z"/>
	<path class="st4" d="M697.4,53.2l-3.1,1.6l0.2,19.9l16.4,9.6l14.6-8.6l2-1.5c0,0,0-12,0.1-18c3.1-1.7,6.1-3.6,9.2-5.3
		c0.1,9.7,0,19.3,0,29c-8.1,4.6-16,9.4-24,14.1c-0.8,0.3-1.7,1.3-2.5,0.6c-8.4-4.8-25.2-14.8-25.2-14.8l0-30.1l2.8-2l9.9-5.6"/>
	<g>
		<g>
			<defs>
				<path id="SVGID_1_" d="M64.3,119.6c18.5,7,29,33.2,39.7,64.1l0,0c39.8,39.4,66.6,20.7,86.3-10.8C180,146,163,101.3,156.7,91.7
					C115.8,30,12.3,59.3,8,150.4C17.5,119.2,43,111.6,64.3,119.6"/>
			</defs>
			<clipPath id="SVGID_2_">
				<use xlink:href="#SVGID_1_"  style="overflow:visible;"/>
			</clipPath>
			<rect x="8" y="30" class="st5" width="182.2" height="193"/>
		</g>
	</g>
	<path class="st6" d="M103.9,183.7c39.8,39.4,66.6,20.7,86.3-10.8c-2.5-6.4-5.3-13.9-8.3-21.6C161.3,235.7,103.9,183.7,103.9,183.7"
		/>
	<g>
		<g>
			<path id="SVGID_5_" class="st7" d="M256.3,226.9c20.1-33.6,37.8-70.9,51.2-92.6c11.2-18.1,25.1-34.7,45.2-48.3
				c10.1-6.9,5.5-20,21-13.7c-76.5-31.2-102.1-45.5-143.1,16.2c-21.5,32.4-50.2,170.9-126.6,95.3l0,0
				C135.3,274.3,176.4,360.3,256.3,226.9"/>
		</g>
		<g>
			<defs>
				<path id="SVGID_3_" d="M256.3,226.9c20.1-33.6,37.8-70.9,51.2-92.6c11.2-18.1,25.1-34.7,45.2-48.3c10.1-6.9,5.5-20,21-13.7
					c-76.5-31.2-102.1-45.5-143.1,16.2c-21.5,32.4-50.2,170.9-126.6,95.3l0,0C135.3,274.3,176.4,360.3,256.3,226.9"/>
			</defs>
			<clipPath id="SVGID_4_">
				<use xlink:href="#SVGID_3_"  style="overflow:visible;"/>
			</clipPath>
			<polygon class="st8" points="109.6,355.7 383.8,325.4 383.8,-8.1 109.6,22.2 			"/>
		</g>
	</g>
	<path class="st6" d="M274.7,105.1c12.8-12.1,32.1-5,51.7-15.8c39.2-21.6,47.8-18.2,47.8-18.2c-81.8-26.9-102.7-44.4-143.6,17.3
		c-14.8,22.2-32.9,94.6-67.6,113.2c12.5,21,27,30.4,51.4,8.4C247.7,180,242.8,135.2,274.7,105.1"/>
	<path class="st6" d="M141,156c-19.5-41.7-48.1-80.2-98.3-56.9C9.9,114.3,8,150.4,8,150.4c9.5-31.2,35-38.8,56.3-30.8
		c18.5,7,29,33.2,39.7,64.1c23.9,23.7,43.2,26.4,59,17.9l0,0C155.5,189.1,148.7,172.5,141,156"/>
	<path class="st9" d="M99,191.7c0,0,19,72.2,49,99.7C120,273.8,100.5,223.3,99,191.7"/>
	<path class="st10" d="M155.5,77.6c0,0-23.2-35-72.5-25.2C109.3,39.3,143.4,51.4,155.5,77.6"/>
	<path class="st11" d="M741.2,224.9h-24.2c-1.1,0-2-0.9-2-2v-34h28.2v34C743.2,224,742.3,224.9,741.2,224.9z"/>
	<rect x="715.1" y="152.3" class="st11" width="28.2" height="37.5"/>
	<path class="st11" d="M743.2,153.3h-28.2v-34c0-1.1,0.9-2,2-2h24.2c1.1,0,2,0.9,2,2V153.3z"/>
</g>
</svg>
