<svg width="100" height="101" viewBox="0 0 100 101" fill="none" xmlns="http://www.w3.org/2000/svg">
<path d="M98.3871 74.2061V79.0448C98.3868 80.328 97.8769 81.5585 96.9695 82.4659C96.0622 83.3733 94.8316 83.8832 93.5484 83.8835H6.45162C5.16842 83.8832 3.93786 83.3733 3.03049 82.4659C2.12313 81.5585 1.61324 80.328 1.61292 79.0448V74.2061H98.3871Z" fill="#57565C"/>
<path d="M98.3871 30.6577V74.2061H1.61292V30.6577C1.61324 29.3745 2.12313 28.1439 3.03049 27.2365C3.93786 26.3292 5.16842 25.8193 6.45162 25.819H93.5484C94.8316 25.8193 96.0622 26.3292 96.9695 27.2365C97.8769 28.1439 98.3868 29.3745 98.3871 30.6577Z" fill="#BDDBFF"/>
<path d="M61.2904 93.561H38.7097L41.9355 83.8835H58.0646L61.2904 93.561Z" fill="#E0E0E2"/>
<path d="M32.2581 93.5609H67.7419V98.3996H32.2581V93.5609Z" fill="#57565C"/>
<path d="M8.06458 30.6577H14.5162V41.948H8.06458V30.6577Z" fill="#AB2300"/>
<path d="M53.2258 30.6577H59.6774V41.948H53.2258V30.6577Z" fill="#FF9811"/>
<path d="M19.3549 12.9158H25.8065V41.948H19.3549V12.9158Z" fill="#83D8F4"/>
<path d="M30.6451 1.62537H37.0968V41.9479H30.6451V1.62537Z" fill="#91CC04"/>
<path d="M41.9354 8.07703H48.387V41.948H41.9354V8.07703Z" fill="#FFDA44"/>
<path d="M11.2904 61.3028C13.0719 61.3028 14.5162 59.8586 14.5162 58.077C14.5162 56.2954 13.0719 54.8512 11.2904 54.8512C9.50882 54.8512 8.06458 56.2954 8.06458 58.077C8.06458 59.8586 9.50882 61.3028 11.2904 61.3028Z" fill="#83D8F4"/>
<path d="M37.0968 69.3674C38.8783 69.3674 40.3226 67.9231 40.3226 66.1416C40.3226 64.36 38.8783 62.9158 37.0968 62.9158C35.3152 62.9158 33.871 64.36 33.871 66.1416C33.871 67.9231 35.3152 69.3674 37.0968 69.3674Z" fill="#91CC04"/>
<path d="M62.9032 54.8513C64.6847 54.8513 66.129 53.407 66.129 51.6255C66.129 49.8439 64.6847 48.3997 62.9032 48.3997C61.1216 48.3997 59.6774 49.8439 59.6774 51.6255C59.6774 53.407 61.1216 54.8513 62.9032 54.8513Z" fill="#AB2300"/>
<path d="M88.7097 66.1416C90.4913 66.1416 91.9355 64.6973 91.9355 62.9157C91.9355 61.1342 90.4913 59.6899 88.7097 59.6899C86.9281 59.6899 85.4839 61.1342 85.4839 62.9157C85.4839 64.6973 86.9281 66.1416 88.7097 66.1416Z" fill="#FF9811"/>
<path d="M14.5161 58.077L33.871 66.1415L14.5161 58.077Z" fill="#E0E0E2"/>
<path d="M40.3226 66.1415L59.6775 51.6254L40.3226 66.1415Z" fill="#E0E0E2"/>
<path d="M66.1292 51.6254L85.484 62.9157L66.1292 51.6254Z" fill="#E0E0E2"/>
<path d="M93.5482 14.5287C93.548 17.0807 92.7911 19.5753 91.3731 21.6972C89.9552 23.8191 87.94 25.4729 85.5823 26.4496C83.2246 27.4262 80.6302 27.6819 78.1271 27.1843C75.6241 26.6866 73.3248 25.458 71.52 23.6537L80.645 14.5287H93.5482Z" fill="#83D8F4"/>
<path d="M80.645 1.62537V14.5286L71.52 23.6536C69.7157 21.8488 68.4871 19.5495 67.9894 17.0465C67.4918 14.5434 67.7475 11.9491 68.7241 9.59133C69.7008 7.2336 71.3546 5.21838 73.4765 3.80047C75.5984 2.38256 78.093 1.62563 80.645 1.62537Z" fill="#FFDA44"/>
<path d="M93.5485 14.5286H80.6453V1.62537C84.0674 1.62537 87.3494 2.98481 89.7692 5.40463C92.189 7.82446 93.5485 11.1064 93.5485 14.5286Z" fill="#AB2300"/>
<path d="M93.5484 24.2061H91.4536C93.3251 22.1185 94.5521 19.5336 94.9862 16.7638C95.4203 13.994 95.0431 11.1577 93.8999 8.59762C92.7568 6.03758 90.8968 3.86334 88.5447 2.33763C86.1925 0.811909 83.4488 0 80.6452 0C77.8415 0 75.0978 0.811909 72.7457 2.33763C70.3935 3.86334 68.5335 6.03758 67.3904 8.59762C66.2473 11.1577 65.87 13.994 66.3041 16.7638C66.7382 19.5336 67.9652 22.1185 69.8367 24.2061H50V8.07704C50 7.64927 49.8301 7.23902 49.5276 6.93655C49.2251 6.63407 48.8149 6.46414 48.3871 6.46414H41.9355C41.5077 6.46414 41.0975 6.63407 40.795 6.93655C40.4925 7.23902 40.3226 7.64927 40.3226 8.07704V24.2061H38.7097V1.62543C38.7097 1.19766 38.5397 0.787412 38.2373 0.484934C37.9348 0.182456 37.5245 0.0125252 37.0968 0.0125252H30.6452C30.2174 0.0125252 29.8071 0.182456 29.5047 0.484934C29.2022 0.787412 29.0323 1.19766 29.0323 1.62543V24.2061H27.4194V12.9158C27.4194 12.488 27.2494 12.0777 26.9469 11.7753C26.6445 11.4728 26.2342 11.3028 25.8065 11.3028H19.3548C18.9271 11.3028 18.5168 11.4728 18.2143 11.7753C17.9119 12.0777 17.7419 12.488 17.7419 12.9158V24.2061H6.45161C4.74113 24.208 3.10125 24.8883 1.89176 26.0978C0.682259 27.3073 0.00192106 28.9472 0 30.6577V79.0448C0.00192106 80.7553 0.682259 82.3951 1.89176 83.6046C3.10125 84.8141 4.74113 85.4945 6.45161 85.4964H39.6976L37.5464 91.948H32.2581C31.8303 91.948 31.42 92.1179 31.1176 92.4204C30.8151 92.7229 30.6452 93.1331 30.6452 93.5609V96.7867H14.5161C14.0884 96.7867 13.6781 96.9566 13.3756 97.2591C13.0732 97.5616 12.9032 97.9718 12.9032 98.3996C12.9032 98.8274 13.0732 99.2376 13.3756 99.5401C13.6781 99.8426 14.0884 100.013 14.5161 100.013H85.4839C85.9116 100.013 86.3219 99.8426 86.6244 99.5401C86.9268 99.2376 87.0968 98.8274 87.0968 98.3996C87.0968 97.9718 86.9268 97.5616 86.6244 97.2591C86.3219 96.9566 85.9116 96.7867 85.4839 96.7867H69.3548V93.5609C69.3548 93.1331 69.1849 92.7229 68.8824 92.4204C68.58 92.1179 68.1697 91.948 67.7419 91.948H62.4536L60.3024 85.4964H93.5484C95.2589 85.4945 96.8988 84.8141 98.1082 83.6046C99.3177 82.3951 99.9981 80.7553 100 79.0448V30.6577C99.9981 28.9472 99.3177 27.3073 98.1082 26.0978C96.8988 24.8883 95.2589 24.208 93.5484 24.2061ZM82.2581 3.35527C84.6686 3.70702 86.9012 4.82751 88.6237 6.55007C90.3463 8.27262 91.4668 10.5052 91.8186 12.9158H82.2581V3.35527ZM81.3125 16.1416H91.8186C91.54 18.0797 90.7618 19.9119 89.5606 21.4582C88.3593 23.0044 86.7764 24.2114 84.9673 24.9606C83.1583 25.7097 81.1854 25.9751 79.2427 25.7308C77.3 25.4864 75.4543 24.7407 73.8871 23.567L81.3125 16.1416ZM69.3548 14.5287C69.3587 11.8149 70.3384 9.19307 72.1151 7.14176C73.8917 5.09046 76.3469 3.74651 79.0323 3.35527V13.8613L71.6069 21.2867C70.1428 19.3381 69.3523 16.966 69.3548 14.5287ZM43.5484 9.68994H46.7742V40.3351H43.5484V9.68994ZM38.7097 27.4319H40.3226V40.3351H38.7097V27.4319ZM32.2581 3.23833H35.4839V40.3351H32.2581V3.23833ZM27.4194 27.4319H29.0323V40.3351H27.4194V27.4319ZM20.9677 14.5287H24.1935V40.3351H20.9677V14.5287ZM66.129 95.1738V96.7867H33.871V95.1738H66.129ZM40.9476 91.948L43.0988 85.4964H56.9012L59.0524 91.948H40.9476ZM96.7742 79.0448C96.7731 79.9 96.4329 80.7198 95.8281 81.3245C95.2234 81.9292 94.4036 82.2695 93.5484 82.2706H6.45161C5.59642 82.2695 4.77657 81.9292 4.17186 81.3245C3.56715 80.7198 3.22693 79.9 3.22581 79.0448V75.819H96.7742V79.0448ZM96.7742 72.5932H3.22581V30.6577C3.22693 29.8025 3.56715 28.9826 4.17186 28.3779C4.77657 27.7732 5.59642 27.433 6.45161 27.4319H17.7419V40.3351H16.129V30.6577C16.129 30.2299 15.9591 29.8197 15.6566 29.5172C15.3541 29.2147 14.9439 29.0448 14.5161 29.0448H8.06452C7.63675 29.0448 7.2265 29.2147 6.92402 29.5172C6.62154 29.8197 6.45161 30.2299 6.45161 30.6577V41.948C6.45161 42.3758 6.62154 42.786 6.92402 43.0885C7.2265 43.391 7.63675 43.5609 8.06452 43.5609H59.6774C60.1052 43.5609 60.5154 43.391 60.8179 43.0885C61.1204 42.786 61.2903 42.3758 61.2903 41.948V30.6577C61.2903 30.2299 61.1204 29.8197 60.8179 29.5172C60.5154 29.2147 60.1052 29.0448 59.6774 29.0448H53.2258C52.798 29.0448 52.3878 29.2147 52.0853 29.5172C51.7828 29.8197 51.6129 30.2299 51.6129 30.6577V40.3351H50V27.4319H74.0081C76.0599 28.4917 78.3358 29.0448 80.6452 29.0448C82.9546 29.0448 85.2304 28.4917 87.2823 27.4319H93.5484C94.4036 27.433 95.2234 27.7732 95.8281 28.3779C96.4329 28.9826 96.7731 29.8025 96.7742 30.6577V72.5932ZM12.9032 32.2706V40.3351H9.67742V32.2706H12.9032ZM54.8387 40.3351V32.2706H58.0645V40.3351H54.8387Z" fill="black"/>
<path d="M17.742 77.4319H8.06456C7.63679 77.4319 7.22655 77.6018 6.92407 77.9043C6.62159 78.2068 6.45166 78.617 6.45166 79.0448C6.45166 79.4726 6.62159 79.8828 6.92407 80.1853C7.22655 80.4878 7.63679 80.6577 8.06456 80.6577H17.742C18.1698 80.6577 18.58 80.4878 18.8825 80.1853C19.185 79.8828 19.3549 79.4726 19.3549 79.0448C19.3549 78.617 19.185 78.2068 18.8825 77.9043C18.58 77.6018 18.1698 77.4319 17.742 77.4319Z" fill="black"/>
<path d="M24.1936 77.4319H22.5807C22.1529 77.4319 21.7427 77.6018 21.4402 77.9043C21.1377 78.2068 20.9678 78.617 20.9678 79.0448C20.9678 79.4726 21.1377 79.8828 21.4402 80.1853C21.7427 80.4878 22.1529 80.6577 22.5807 80.6577H24.1936C24.6213 80.6577 25.0316 80.4878 25.3341 80.1853C25.6366 79.8828 25.8065 79.4726 25.8065 79.0448C25.8065 78.617 25.6366 78.2068 25.3341 77.9043C25.0316 77.6018 24.6213 77.4319 24.1936 77.4319Z" fill="black"/>
<path d="M67.7419 40.3351C67.9537 40.3354 68.1635 40.2938 68.3593 40.2128C68.555 40.1317 68.7328 40.0128 68.8824 39.8628L74.8614 33.8835H88.7096C89.1374 33.8835 89.5476 33.7136 89.8501 33.4111C90.1526 33.1086 90.3225 32.6984 90.3225 32.2706C90.3225 31.8428 90.1526 31.4326 89.8501 31.1301C89.5476 30.8276 89.1374 30.6577 88.7096 30.6577H74.1935C73.9817 30.6577 73.7719 30.6994 73.5762 30.7805C73.3805 30.8615 73.2027 30.9803 73.053 31.1301L66.6013 37.5817C66.3758 37.8073 66.2221 38.0947 66.1599 38.4076C66.0977 38.7204 66.1296 39.0447 66.2517 39.3395C66.3738 39.6342 66.5805 39.8861 66.8458 40.0633C67.111 40.2406 67.4229 40.3351 67.7419 40.3351Z" fill="black"/>
<path d="M88.7096 58.0771C87.862 58.0777 87.0294 58.3009 86.2953 58.7244C85.5611 59.148 84.951 59.7569 84.5262 60.4904L67.6411 50.6396C67.4123 49.5404 66.8085 48.555 65.933 47.8522C65.0575 47.1494 63.9649 46.7728 62.8422 46.7871C61.7196 46.8014 60.6369 47.2057 59.7796 47.9306C58.9223 48.6555 58.3438 49.6559 58.1431 50.7605L41.1512 63.5045C40.6889 62.7926 40.0474 62.215 39.2911 61.8297C38.5348 61.4444 37.6904 61.265 36.8428 61.3096C35.9952 61.3541 35.1742 61.621 34.4625 62.0835C33.7508 62.5459 33.1733 63.1876 32.7883 63.944L15.9939 56.946C15.7289 55.8411 15.0837 54.8647 14.1713 54.1876C13.2589 53.5105 12.1373 53.176 11.0031 53.2425C9.86885 53.3091 8.79415 53.7725 7.96717 54.5517C7.14019 55.3308 6.61363 56.376 6.47969 57.5043C6.34574 58.6326 6.61295 59.772 7.23452 60.7231C7.85609 61.6742 8.79241 62.3764 9.87956 62.7067C10.9667 63.0369 12.1354 62.9743 13.181 62.5296C14.2266 62.085 15.0824 61.2868 15.5987 60.2746L32.3931 67.2726C32.6524 68.3517 33.2748 69.3088 34.156 69.9835C35.0372 70.6582 36.1235 71.0093 37.2329 70.9781C38.3422 70.9469 39.4072 70.5353 40.249 69.8122C41.0909 69.089 41.6586 68.0984 41.8568 67.0065L58.8487 54.2625C59.2989 54.956 59.9193 55.5224 60.6509 55.9076C61.3824 56.2928 62.2005 56.4839 63.0269 56.4626C63.8534 56.4414 64.6606 56.2085 65.3714 55.7863C66.0821 55.364 66.6727 54.7665 67.0866 54.0508L83.9717 63.9017C84.1581 64.7972 84.5945 65.6216 85.2303 66.2792C85.8662 66.9368 86.6754 67.4007 87.5642 67.6171C88.4529 67.8335 89.3849 67.7936 90.2518 67.5019C91.1188 67.2102 91.8854 66.6787 92.4626 65.9691C93.0398 65.2595 93.4041 64.4008 93.5131 63.4926C93.6222 62.5844 93.4715 61.6639 93.0787 60.8378C92.6859 60.0117 92.0669 59.3139 91.2936 58.8252C90.5203 58.3366 89.6244 58.0772 88.7096 58.0771ZM12.9032 58.0851C12.9021 58.5136 12.731 58.9242 12.4274 59.2266C12.1239 59.529 11.7127 59.6986 11.2842 59.698C10.8557 59.6975 10.445 59.5269 10.1422 59.2237C9.83938 58.9205 9.66931 58.5096 9.66931 58.0811C9.66931 57.6526 9.83938 57.2416 10.1422 56.9385C10.445 56.6353 10.8557 56.4647 11.2842 56.4642C11.7127 56.4636 12.1239 56.6332 12.4274 56.9356C12.731 57.238 12.9021 57.6486 12.9032 58.0771V58.0851ZM37.0967 67.7545C36.6691 67.7539 36.2592 67.5838 35.9569 67.2814C35.6545 66.9791 35.4844 66.5692 35.4838 66.1416V66.1335C35.4854 65.8149 35.5814 65.5038 35.7596 65.2396C35.9377 64.9755 36.1902 64.77 36.4851 64.6491C36.7799 64.5283 37.104 64.4975 37.4163 64.5606C37.7286 64.6238 38.0153 64.778 38.24 65.0039C38.4648 65.2298 38.6176 65.5172 38.6792 65.8299C38.7408 66.1425 38.7084 66.4664 38.5861 66.7607C38.4637 67.0549 38.257 67.3063 37.992 67.4832C37.7269 67.6601 37.4154 67.7545 37.0967 67.7545ZM62.9032 53.2383C62.5842 53.2383 62.2723 53.1438 62.0071 52.9665C61.7418 52.7893 61.5351 52.5374 61.413 52.2427C61.291 51.948 61.259 51.6237 61.3213 51.3108C61.3835 50.9979 61.5371 50.7105 61.7627 50.4849C61.9882 50.2594 62.2756 50.1058 62.5885 50.0435C62.9014 49.9813 63.2257 50.0132 63.5204 50.1353C63.8151 50.2574 64.067 50.4641 64.2442 50.7294C64.4215 50.9946 64.5161 51.3064 64.5161 51.6254C64.5155 52.053 64.3454 52.4629 64.043 52.7653C63.7407 53.0676 63.3308 53.2378 62.9032 53.2383ZM88.7096 64.5287C88.3906 64.5287 88.0788 64.4341 87.8135 64.2568C87.5483 64.0796 87.3416 63.8277 87.2195 63.533C87.0974 63.2383 87.0655 62.914 87.1277 62.6011C87.1899 62.2882 87.3436 62.0008 87.5691 61.7753C87.7947 61.5497 88.0821 61.3961 88.395 61.3339C88.7078 61.2716 89.0321 61.3036 89.3269 61.4256C89.6216 61.5477 89.8735 61.7544 90.0507 62.0197C90.2279 62.2849 90.3225 62.5968 90.3225 62.9158C90.3219 63.3434 90.1518 63.7533 89.8495 64.0556C89.5471 64.358 89.1372 64.5281 88.7096 64.5287Z" fill="black"/>
<path d="M75.8064 67.7544H64.5161C64.0883 67.7544 63.6781 67.9243 63.3756 68.2268C63.0731 68.5293 62.9032 68.9395 62.9032 69.3673C62.9032 69.7951 63.0731 70.2053 63.3756 70.5078C63.6781 70.8103 64.0883 70.9802 64.5161 70.9802H75.8064C76.2342 70.9802 76.6444 70.8103 76.9469 70.5078C77.2494 70.2053 77.4193 69.7951 77.4193 69.3673C77.4193 68.9395 77.2494 68.5293 76.9469 68.2268C76.6444 67.9243 76.2342 67.7544 75.8064 67.7544Z" fill="black"/>
<path d="M75.8063 62.9158H70.9676C70.5399 62.9158 70.1296 63.0857 69.8271 63.3882C69.5247 63.6907 69.3547 64.1009 69.3547 64.5287C69.3547 64.9564 69.5247 65.3667 69.8271 65.6692C70.1296 65.9716 70.5399 66.1416 70.9676 66.1416H75.8063C76.2341 66.1416 76.6444 65.9716 76.9468 65.6692C77.2493 65.3667 77.4193 64.9564 77.4193 64.5287C77.4193 64.1009 77.2493 63.6907 76.9468 63.3882C76.6444 63.0857 76.2341 62.9158 75.8063 62.9158Z" fill="black"/>
<path d="M8.06456 48.3996H25.8065C26.2343 48.3996 26.6445 48.2297 26.947 47.9272C27.2495 47.6247 27.4194 47.2145 27.4194 46.7867C27.4194 46.359 27.2495 45.9487 26.947 45.6462C26.6445 45.3438 26.2343 45.1738 25.8065 45.1738H8.06456C7.63679 45.1738 7.22655 45.3438 6.92407 45.6462C6.62159 45.9487 6.45166 46.359 6.45166 46.7867C6.45166 47.2145 6.62159 47.6247 6.92407 47.9272C7.22655 48.2297 7.63679 48.3996 8.06456 48.3996Z" fill="black"/>
<path d="M30.6451 48.3996H32.258C32.6858 48.3996 33.0961 48.2297 33.3985 47.9272C33.701 47.6247 33.8709 47.2145 33.8709 46.7867C33.8709 46.359 33.701 45.9487 33.3985 45.6462C33.0961 45.3438 32.6858 45.1738 32.258 45.1738H30.6451C30.2174 45.1738 29.8071 45.3438 29.5046 45.6462C29.2022 45.9487 29.0322 46.359 29.0322 46.7867C29.0322 47.2145 29.2022 47.6247 29.5046 47.9272C29.8071 48.2297 30.2174 48.3996 30.6451 48.3996Z" fill="black"/>
</svg>
