<svg width="100" height="100" viewBox="0 0 100 100" fill="none" xmlns="http://www.w3.org/2000/svg">
<path d="M36.7548 65.7744L29.8394 64.1172L22.8825 65.7791C17.6417 67.0311 13.9445 71.7154 13.9445 77.1037V90.2328H19.7193L42.4238 69.0193C40.9214 67.4596 38.9781 66.3072 36.7548 65.7744Z" fill="#72D8FF"/>
<path d="M27.4985 59.1382C31.7287 57.627 34.7569 53.5862 34.7569 48.8368V42.0419H20.2399V48.8368C20.2399 53.5862 23.268 57.627 27.4985 59.1382Z" fill="#FFCDAC"/>
<path d="M20.4015 44.191H20.4206C25.1421 44.191 29.7751 42.9092 33.8251 40.4824L34.7568 44.191V41.558C34.7568 37.1944 32.2007 33.4285 28.5044 31.6735C23.7417 33.6963 20.4015 38.4162 20.4015 43.9168C20.4015 43.9168 20.4015 44.191 20.4015 44.191Z" fill="#898998"/>
<path d="M89.1088 65.7794L81.0939 63.8647V58.9432H71.2809V63.8489L69.2559 64.3341L75.3053 65.7792C80.5461 67.0311 84.2434 71.7155 84.2434 77.1038V90.2329H98.0469V77.1038C98.0469 71.7157 94.3496 67.0313 89.1088 65.7794Z" fill="#A0E557"/>
<path d="M49.6406 71.5092L58.7856 69.3178L56.8233 68.849L43.1551 68.8271L31.9625 71.5092C24.668 73.2572 19.524 79.7793 19.524 87.2801V98.0453H37.2024V87.2801C37.2022 79.7793 42.3461 73.2572 49.6406 71.5092Z" fill="white"/>
<path d="M67.9865 71.5159L58.7855 69.3179L49.6406 71.5093C42.3461 73.2573 37.2021 79.7794 37.2021 87.2802V98.0454H80.4359V87.2895C80.4361 79.7845 75.2863 73.2599 67.9865 71.5159Z" fill="#FF5D5D"/>
<path d="M23.5352 58.9432H18.75V63.9989L23.8371 76.1796L26.2293 70.4497L23.5352 63.9989V58.9432Z" fill="white"/>
<path d="M75.8553 58.9432H71.0702V63.9813L76.1628 76.1796L78.5557 70.4497L75.8553 63.9813V58.9432Z" fill="white"/>
<path d="M28.9297 58.9432H23.5352V63.9989L26.2293 70.4497L28.9297 63.9813V58.9432Z" fill="#FFCDAC"/>
<path d="M81.25 58.9432H75.8555V63.9813L78.5559 70.4497L81.25 63.9989V58.9432Z" fill="#FFCDAC"/>
<path d="M49.5132 64.8889V63.2985H43.5561V64.8889C43.5561 66.0061 43.2491 67.0615 42.7098 67.9688L50.002 84.5178L52.98 77.7569L48.6669 67.9688C49.2061 67.0615 49.5132 66.0061 49.5132 64.8889Z" fill="white"/>
<path d="M56.44 64.8887V63.2985H49.513V64.8889C49.513 66.0061 49.206 67.0615 48.6667 67.9688L52.9798 77.7569L57.289 67.9733C56.7482 67.0651 56.44 66.0078 56.44 64.8887Z" fill="#FFEFD5"/>
<path d="M55.1758 62.2485C61.0414 60.1296 65.2344 54.5138 65.2344 47.9173V37.4058H45.1172V47.9173C45.1172 54.5138 49.3102 60.1298 55.1758 62.2485Z" fill="#FFEFD5"/>
<path d="M56.2213 23.8737C49.7066 26.5428 45.1172 32.9457 45.1172 40.4217V41.1918C48.9672 40.5139 52.4932 38.5026 55.0434 35.4594L64.9603 41.2858C65.0525 41.2227 65.1436 41.1576 65.2346 41.093V37.7795C65.2344 31.5824 61.5324 26.2537 56.2213 23.8737Z" fill="#FFB954"/>
<path d="M79.9161 59.1192C84.1175 57.5926 87.1187 53.5655 87.1187 48.8365V42.0416H72.7134V48.8365C72.7134 53.5655 75.7147 57.5928 79.9161 59.1192Z" fill="#FFCDAC"/>
<path d="M81.0241 31.7509C76.4665 33.729 73.1966 38.1087 72.8062 43.2936C73.1333 43.3817 73.4624 43.4624 73.7929 43.5376L73.931 42.9878C74.4474 43.2973 74.9731 43.588 75.5042 43.8675C76.8472 44.08 78.2091 44.1913 79.5792 44.1913H87.1188V41.5583C87.1188 37.2569 84.6349 33.5374 81.0241 31.7509Z" fill="#898998"/>
<path d="M1.95312 92.186H17.5709V98.0453C17.5709 99.1241 18.4455 99.9985 19.524 99.9985H40.9506C42.0291 99.9985 42.9037 99.1241 42.9037 98.0453C42.9037 96.9666 42.0291 96.0922 40.9506 96.0922H32.2313V87.4961C32.2313 86.4174 31.3566 85.543 30.2781 85.543C29.1996 85.543 28.325 86.4174 28.325 87.4961V96.0922H21.477V87.2801C21.477 80.6563 25.9758 74.9522 32.4174 73.4086L42.0234 71.1067L48.2043 85.1684C48.516 85.8776 49.2174 86.3356 49.992 86.3356H49.9922C50.7668 86.3356 51.4684 85.8778 51.7801 85.1686L57.9547 71.1274L67.5328 73.4155C73.9803 74.9555 78.483 80.6608 78.483 87.2893V89.4688C78.3832 89.7035 78.3277 89.9615 78.3277 90.2326C78.3277 90.5037 78.3832 90.7619 78.483 90.9965V96.092H71.675V87.4959C71.675 86.4172 70.8004 85.5428 69.7219 85.5428C68.6434 85.5428 67.7688 86.4172 67.7688 87.4959V96.092H58.2033C57.1248 96.092 56.2502 96.9664 56.2502 98.0451C56.2502 99.1239 57.1248 99.9983 58.2033 99.9983H80.4361C81.5146 99.9983 82.3893 99.1239 82.3893 98.0451V92.1858H98.0469C99.1254 92.1858 100 91.3114 100 90.2326V77.1035C100 70.7854 95.7078 65.3473 89.5625 63.8793L83.0473 62.3229V59.7385C86.6637 57.4528 89.0723 53.4217 89.0723 48.8365V44.1908V42.0414V41.5578C89.0723 34.4498 83.2895 28.6672 76.1813 28.6672C72.3469 28.6672 68.9002 30.352 66.5367 33.0178C64.4668 25.8492 57.8463 20.5914 50.0203 20.5914H50.0201C42.1814 20.5914 35.552 25.8658 33.4936 33.052C31.1295 30.3664 27.6701 28.6672 23.8193 28.6672C16.7111 28.6672 10.9283 34.45 10.9283 41.5578V42.0414V44.1908V48.8365C10.9283 53.4219 13.3369 57.453 16.9533 59.7385V62.3229L10.4381 63.8793C4.29219 65.3477 0 70.7856 0 77.1039V90.233C0 91.3116 0.874609 92.186 1.95312 92.186ZM34.7086 55.7223C36.1811 58.599 38.441 61.008 41.2018 62.6651V65.5391C39.9756 64.7785 38.6303 64.2155 37.21 63.8752L30.6721 62.3086V59.7471C32.298 58.7223 33.6791 57.3449 34.7086 55.7223ZM69.3279 59.7471V62.3086L62.79 63.8752C61.3611 64.2176 60.0082 64.7858 58.776 65.5533V62.702C61.5537 61.0506 63.8295 58.6399 65.3133 55.7569C66.3408 57.3643 67.7135 58.7295 69.3279 59.7471ZM63.29 44.191V48.3758C63.0471 55.4873 57.1898 61.1989 50.0199 61.1989C42.6965 61.1989 36.7383 55.2408 36.7383 47.9174V43.3998H42.234C47.2191 43.3998 51.9439 41.4295 55.4346 37.9426L63.2902 42.5576V44.191H63.29ZM31.5072 69.61C30.3539 69.8864 29.2518 70.2709 28.2053 70.7451L30.1076 66.1901L36.2996 67.6739C36.7799 67.7889 37.2479 67.941 37.7008 68.1258L31.5072 69.61ZM49.9926 79.5295L45.108 68.4168V64.3887C46.665 64.8539 48.3137 65.1049 50.0199 65.1049C51.7035 65.1049 53.3311 64.8604 54.8697 64.4071V68.4385L49.9926 79.5295ZM62.2635 68.1407C62.7275 67.9492 63.2074 67.792 63.7004 67.6739L69.8773 66.1938L71.7875 70.7692C70.7275 70.2864 69.6102 69.8959 68.4402 69.6164L62.2635 68.1407ZM96.0938 77.1039V88.2799H92.1875V79.6024C92.1875 78.5237 91.3129 77.6492 90.2344 77.6492C89.1559 77.6492 88.2812 78.5237 88.2812 79.6024V88.2799H82.3893V87.2897C82.3893 83.0125 80.9154 79.0387 78.3955 75.902L82.4488 66.1965L88.6549 67.6791C93.0348 68.7252 96.0938 72.6008 96.0938 77.1039ZM79.1453 63.9701L76.1633 71.1106L73.2215 64.0641C73.2293 63.9932 73.235 63.9219 73.235 63.8504C73.235 63.8323 73.2348 63.8139 73.2342 63.7957V61.3836C74.1814 61.6061 75.167 61.7274 76.1811 61.7274C77.1996 61.7274 78.1898 61.6049 79.1408 61.3805V63.8645C79.1408 63.9002 79.1434 63.935 79.1453 63.9701ZM76.1811 57.8211C71.227 57.8211 67.1963 53.7906 67.1963 48.8365V48.5178C67.2031 48.3184 67.208 48.1184 67.208 47.9172V43.266C71.0477 45.1543 75.2807 46.144 79.5795 46.144H85.166V48.8365C85.1658 53.7908 81.1352 57.8211 76.1811 57.8211ZM76.1811 32.5737C81.1352 32.5737 85.1658 36.6041 85.1658 41.558V42.0416V42.2379H79.5793C75.3594 42.2379 71.2127 41.1299 67.5582 39.0297C68.6531 35.3028 72.1043 32.5737 76.1811 32.5737ZM36.7383 37.7793C36.7383 30.4559 42.6965 24.4981 50.0201 24.4981C57.3436 24.4981 63.3018 30.4561 63.3018 37.7793V38.034L56.0527 33.7752C55.2303 33.2918 54.1791 33.4737 53.5664 34.2047C50.75 37.5657 46.6195 39.4934 42.2342 39.4934H36.7383V38.4528V37.7793ZM14.8342 41.558C14.8342 36.6039 18.8648 32.5737 23.8189 32.5737C27.8957 32.5737 31.3469 35.3028 32.4416 39.0299C28.7871 41.1299 24.6406 42.2381 20.4205 42.2381H14.8342V42.0418V41.558ZM14.8342 46.1442H20.4207C24.7238 46.1442 28.9611 45.1528 32.8037 43.2608V44.191V48.8367C32.8037 53.7908 28.773 57.8213 23.8189 57.8213C18.8648 57.8213 14.8342 53.7908 14.8342 48.8367V46.1442ZM23.8189 61.7274C24.833 61.7274 25.8186 61.6059 26.7658 61.3836V63.741C26.7637 63.7778 26.7627 63.8145 26.7627 63.8512C26.7627 63.9127 26.7686 63.9739 26.7744 64.035L23.8193 71.1106L20.8531 64.0053C20.8564 63.9586 20.8592 63.9119 20.8592 63.8647V61.3807C21.8102 61.6051 22.8004 61.7274 23.8189 61.7274ZM3.90625 77.1039C3.90625 72.601 6.96523 68.7254 11.3451 67.6791L17.5361 66.2L21.5768 75.8787C19.0496 79.018 17.5709 82.9973 17.5709 87.2801V88.2797H11.7188V79.6022C11.7188 78.5235 10.8441 77.649 9.76562 77.649C8.68711 77.649 7.8125 78.5235 7.8125 79.6022V88.2797H3.90625V77.1039Z" fill="black"/>
<path d="M79.418 14.4517H80.7576C81.8361 14.4517 82.7107 13.5772 82.7107 12.4985C82.7107 11.4198 81.8361 10.5454 80.7576 10.5454H79.418C78.3395 10.5454 77.4648 11.4198 77.4648 12.4985C77.4648 13.5772 78.3395 14.4517 79.418 14.4517Z" fill="black"/>
<path d="M88.8948 14.4517H90.2344C91.3129 14.4517 92.1876 13.5772 92.1876 12.4985C92.1876 11.4198 91.3129 10.5454 90.2344 10.5454H88.8948C87.8163 10.5454 86.9417 11.4198 86.9417 12.4985C86.9417 13.5772 87.8161 14.4517 88.8948 14.4517Z" fill="black"/>
<path d="M45.2539 46.3716C45.205 46.2524 45.1443 46.1392 45.074 46.0337C45.0019 45.9263 44.9199 45.8267 44.8298 45.7368C44.74 45.647 44.6404 45.5649 44.533 45.4946C44.4275 45.4243 44.3142 45.3638 44.197 45.3149C44.0779 45.2661 43.9548 45.229 43.8318 45.2036C43.5798 45.1528 43.3201 45.1528 43.0681 45.2036C42.9431 45.229 42.8201 45.2661 42.7029 45.3149C42.5837 45.3638 42.4707 45.4243 42.3652 45.4946C42.2576 45.5649 42.158 45.647 42.0681 45.7368C41.7048 46.1001 41.4958 46.604 41.4958 47.1177C41.4958 47.2446 41.5093 47.3735 41.5349 47.4985C41.5603 47.6235 41.5972 47.7466 41.646 47.8638C41.6949 47.9829 41.7556 48.0962 41.8257 48.2017C41.896 48.3091 41.9781 48.4087 42.0679 48.4985C42.1578 48.5884 42.2574 48.6704 42.365 48.7407C42.4705 48.811 42.5835 48.8716 42.7027 48.9204C42.8201 48.9692 42.9429 49.0083 43.0679 49.0317C43.1929 49.0571 43.3218 49.0708 43.4488 49.0708C43.9625 49.0708 44.4664 48.8618 44.8294 48.4985C44.9195 48.4087 45.0015 48.3091 45.0736 48.2017C45.1439 48.0962 45.2046 47.9829 45.2535 47.8638C45.3023 47.7466 45.3392 47.6235 45.3646 47.4985C45.39 47.3735 45.4017 47.2446 45.4017 47.1177C45.4017 46.9907 45.3898 46.8618 45.3646 46.7368C45.3394 46.6118 45.3027 46.4888 45.2539 46.3716Z" fill="black"/>
<path d="M55.1288 45.7368C55.039 45.8267 54.957 45.9263 54.8866 46.0337C54.8165 46.1392 54.7558 46.2524 54.707 46.3716C54.6581 46.4888 54.6212 46.6118 54.5956 46.7368C54.5702 46.8618 54.5568 46.9907 54.5568 47.1177C54.5568 47.2446 54.5702 47.3735 54.5956 47.4985C54.6212 47.6235 54.6581 47.7466 54.707 47.8657C54.7558 47.9829 54.8165 48.0962 54.8866 48.2017C54.957 48.3091 55.039 48.4087 55.1288 48.4985C55.2187 48.5884 55.3183 48.6704 55.4257 48.7427C55.5312 48.813 55.6445 48.8716 55.7636 48.9204C55.8808 48.9692 56.0038 49.0083 56.1288 49.0337C56.2538 49.0591 56.3827 49.0708 56.5097 49.0708C56.6386 49.0708 56.7656 49.0591 56.8925 49.0337C57.0156 49.0083 57.1386 48.9692 57.2577 48.9204C57.3749 48.8716 57.4882 48.813 57.5937 48.7427C57.7011 48.6704 57.8007 48.5884 57.8925 48.4985C58.2556 48.1353 58.4628 47.6313 58.4628 47.1177C58.4628 46.604 58.2556 46.1001 57.8925 45.7368C57.8005 45.647 57.7011 45.5649 57.5937 45.4946C57.4882 45.4243 57.3749 45.3638 57.2577 45.3149C57.1386 45.2661 57.0156 45.2271 56.8925 45.2036C56.6406 45.1528 56.3808 45.1528 56.1288 45.2036C56.0038 45.2271 55.8806 45.2661 55.7636 45.3149C55.6445 45.3638 55.5312 45.4243 55.4257 45.4946C55.3181 45.5649 55.2187 45.647 55.1288 45.7368Z" fill="black"/>
<path d="M50.9969 52.3114C50.4194 52.8889 49.4797 52.8889 48.9022 52.3114C48.1393 51.5487 46.903 51.5487 46.1399 52.3114C45.3772 53.0741 45.3772 54.3108 46.1399 55.0737C47.1903 56.1239 48.5698 56.6491 49.9495 56.6491C51.3292 56.6491 52.7086 56.1241 53.759 55.0737C54.5217 54.311 54.5217 53.0743 53.759 52.3114C52.9963 51.5487 51.76 51.5487 50.9969 52.3114Z" fill="black"/>
<path d="M84.8263 19.8599C85.9048 19.8599 86.7794 18.9855 86.7794 17.9068V16.5671C86.7794 15.4884 85.9048 14.614 84.8263 14.614C83.7478 14.614 82.8732 15.4884 82.8732 16.5671V17.9068C82.8732 18.9855 83.7476 19.8599 84.8263 19.8599Z" fill="black"/>
<path d="M84.8263 10.3833C85.9048 10.3833 86.7794 9.50894 86.7794 8.43022V7.09058C86.7794 6.01187 85.9048 5.13745 84.8263 5.13745C83.7478 5.13745 82.8732 6.01187 82.8732 7.09058V8.43022C82.8732 9.50894 83.7476 10.3833 84.8263 10.3833Z" fill="black"/>
<path d="M9.65698 14.4517H10.9964C12.075 14.4517 12.9496 13.5772 12.9496 12.4985C12.9496 11.4198 12.075 10.5454 10.9964 10.5454H9.65698C8.57847 10.5454 7.70386 11.4198 7.70386 12.4985C7.70386 13.5772 8.57847 14.4517 9.65698 14.4517Z" fill="black"/>
<path d="M19.1338 14.4517H20.4732C21.5518 14.4517 22.4264 13.5772 22.4264 12.4985C22.4264 11.4198 21.5518 10.5454 20.4732 10.5454H19.1338C18.0553 10.5454 17.1807 11.4198 17.1807 12.4985C17.1807 13.5772 18.0551 14.4517 19.1338 14.4517Z" fill="black"/>
<path d="M15.0652 19.8599C16.1437 19.8599 17.0183 18.9855 17.0183 17.9068V16.5671C17.0183 15.4884 16.1437 14.614 15.0652 14.614C13.9867 14.614 13.1121 15.4884 13.1121 16.5671V17.9068C13.1121 18.9855 13.9865 19.8599 15.0652 19.8599Z" fill="black"/>
<path d="M15.0652 10.3833C16.1437 10.3833 17.0183 9.50894 17.0183 8.43022V7.09058C17.0183 6.01187 16.1437 5.13745 15.0652 5.13745C13.9867 5.13745 13.1121 6.01187 13.1121 7.09058V8.43022C13.1121 9.50894 13.9865 10.3833 15.0652 10.3833Z" fill="black"/>
<path d="M50 16.4824C51.0785 16.4824 51.9531 15.608 51.9531 14.5293V9.39063C51.9531 8.31191 51.0785 7.4375 50 7.4375C48.9215 7.4375 48.0469 8.31191 48.0469 9.39063V14.5293C48.0469 15.608 48.9215 16.4824 50 16.4824Z" fill="black"/>
<path d="M48.1973 2.69967C48.2461 2.81686 48.3068 2.93014 48.377 3.03561C48.4473 3.14303 48.5293 3.24264 48.6191 3.33248C48.709 3.42233 48.8086 3.50436 48.9162 3.57467C49.0217 3.64498 49.1348 3.70553 49.2539 3.75436C49.3711 3.80319 49.4941 3.8403 49.6191 3.86569C49.7441 3.89108 49.873 3.90475 50 3.90475C50.5137 3.90475 51.0176 3.69576 51.3807 3.33248C51.4705 3.24264 51.5527 3.14303 51.6228 3.03561C51.6932 2.93014 51.7537 2.81686 51.8025 2.69967C51.8514 2.58053 51.8904 2.45748 51.9139 2.33248C51.9393 2.20748 51.9529 2.07858 51.9529 1.95162C51.9529 1.82467 51.9393 1.69576 51.9139 1.57076C51.8904 1.44576 51.8514 1.32272 51.8025 1.20553C51.7537 1.08639 51.6932 0.973108 51.6228 0.86764C51.5527 0.760218 51.4705 0.660608 51.3807 0.570765C50.9277 0.11764 50.2537 -0.0913447 49.6189 0.0375616C49.4939 0.0609991 49.3707 0.100062 49.2537 0.14889C49.1346 0.197718 49.0215 0.258265 48.916 0.328577C48.8084 0.39889 48.7088 0.480921 48.6189 0.570765C48.5291 0.660608 48.4471 0.760218 48.3768 0.86764C48.3066 0.973108 48.2459 1.08639 48.1971 1.20553C48.1482 1.32272 48.1113 1.44576 48.0859 1.57076C48.0604 1.69576 48.0469 1.82467 48.0469 1.95162C48.0469 2.07858 48.0604 2.20748 48.0859 2.33248C48.1113 2.45748 48.1484 2.58053 48.1973 2.69967Z" fill="black"/>
<path d="M40.3932 10.5966C40.7746 10.978 41.2744 11.1687 41.7742 11.1687C42.274 11.1687 42.7739 10.978 43.1553 10.5966C43.918 9.83389 43.918 8.59717 43.1553 7.83428L40.2971 4.97607C39.5342 4.21338 38.2979 4.21338 37.5348 4.97607C36.7721 5.73877 36.7721 6.97549 37.5348 7.73838L40.3932 10.5966Z" fill="black"/>
<path d="M58.13 11.157C58.63 11.157 59.1296 10.9664 59.5111 10.5849L62.4648 7.6312C63.2275 6.86851 63.2275 5.63179 62.4648 4.8689C61.7019 4.1062 60.4656 4.1062 59.7025 4.8689L56.7488 7.82261C55.9861 8.5853 55.9861 9.82202 56.7488 10.5849C57.1304 10.9664 57.63 11.157 58.13 11.157Z" fill="black"/>
<path d="M48.3262 99.1294C48.3965 99.2368 48.4785 99.3364 48.5684 99.4262C48.6582 99.5161 48.7578 99.5981 48.8652 99.6684C48.9707 99.7387 49.084 99.7993 49.2031 99.8481C49.3203 99.8969 49.4432 99.936 49.5684 99.9594C49.6934 99.9848 49.8223 99.9985 49.9492 99.9985C50.4629 99.9985 50.9668 99.7895 51.3299 99.4262C51.4197 99.3364 51.5018 99.2368 51.5721 99.1294C51.6424 99.0239 51.7029 98.9106 51.7518 98.7915C51.8006 98.6743 51.8396 98.5512 51.8631 98.4262C51.8885 98.3012 51.9022 98.1723 51.9022 98.0454C51.9022 97.9184 51.8885 97.7895 51.8631 97.6645C51.8396 97.5395 51.8006 97.4165 51.7518 97.2993C51.7029 97.1801 51.6424 97.0669 51.5721 96.9614C51.5018 96.854 51.4197 96.7544 51.3299 96.6645C50.877 96.2114 50.2029 96.0024 49.5682 96.1313C49.443 96.1547 49.3199 96.1938 49.2029 96.2426C49.0838 96.2915 48.9705 96.352 48.865 96.4223C48.7576 96.4926 48.658 96.5747 48.5682 96.6645C48.4783 96.7544 48.3963 96.854 48.326 96.9614C48.2557 97.0669 48.1951 97.1801 48.1463 97.2993C48.0975 97.4165 48.0584 97.5395 48.035 97.6645C48.0096 97.7895 47.9961 97.9184 47.9961 98.0454C47.9961 98.1723 48.0096 98.3012 48.035 98.4262C48.0584 98.5512 48.0975 98.6743 48.1463 98.7915C48.1953 98.9106 48.2557 99.0239 48.3262 99.1294Z" fill="black"/>
</svg>
