<svg width="100" height="100" viewBox="0 0 100 100" fill="none" xmlns="http://www.w3.org/2000/svg">
<path d="M98.0469 50.0002C98.0469 23.4647 76.5355 1.95337 50 1.95337C23.4645 1.95337 1.95312 23.4647 1.95312 50.0002C1.95312 67.3782 11.1789 82.6012 25 91.0387C32.2832 95.485 40.8424 98.0471 50 98.0471C76.5357 98.0471 98.0469 76.5358 98.0469 50.0002Z" fill="#78D2FA"/>
<path d="M37.5406 55.1848L5.79846 68.8624C9.74612 78.1012 16.5043 85.8522 25 91.0387C29.6553 93.8807 34.8324 95.9512 40.3533 97.0764L40.8428 96.7282L44.3309 90.3944H47.0785C50.1447 90.3944 52.6303 87.9088 52.6303 84.8426V82.1467C52.6303 80.969 53.0047 79.8219 53.6996 78.8711L46.0914 67.5079L37.5406 55.1848Z" fill="#A5DC69"/>
<path d="M50 1.95337C40.7464 1.95337 32.1056 4.57173 24.7732 9.10454V10.3292L36.7072 14.8694C37.7681 15.2731 38.4542 16.3075 38.4134 17.4418C39.3744 20.2067 42.5582 21.4834 45.1634 20.1487L47.7562 18.7788C55.2873 14.7999 64.1931 20.8979 63.2082 29.3584L63.1841 29.5643C62.9419 31.6446 61.466 33.3038 59.4839 33.7717C58.1941 34.0762 56.7253 34.4264 55.4667 34.7272C53.6427 35.1633 52.238 36.6186 51.8667 38.4571L50.1906 46.7557C49.6017 49.6713 51.7687 52.419 54.7412 52.526L56.8921 52.6034C57.5113 52.6256 58.1205 52.767 58.6861 53.02L70.2876 66.4959L69.0533 81.1165C68.7689 85.6032 71.513 89.1016 75.0994 90.4633L75.7886 90.545C89.1707 82.0157 98.0468 67.045 98.0468 50.0002C98.0468 23.4647 76.5357 1.95337 50 1.95337Z" fill="#A5DC69"/>
<path d="M37.5 58.6113C37.5 48.7953 29.5426 40.8379 19.7266 40.8379C9.91055 40.8379 1.95312 48.7953 1.95312 58.6113C1.95312 62.8664 3.44922 66.7719 5.94297 69.8316H5.9418L19.7266 87.5002L33.4455 69.9242H33.4352C35.9744 66.8508 37.5 62.9094 37.5 58.6113Z" fill="#F5B955"/>
<path d="M19.7266 68.2695C24.9042 68.2695 29.1016 64.0722 29.1016 58.8945C29.1016 53.7169 24.9042 49.5195 19.7266 49.5195C14.5489 49.5195 10.3516 53.7169 10.3516 58.8945C10.3516 64.0722 14.5489 68.2695 19.7266 68.2695Z" fill="white"/>
<path d="M98.0468 16.3736C98.0468 8.40938 91.5906 1.95312 83.6263 1.95312C75.6621 1.95312 69.2058 8.40938 69.2058 16.3736C69.2058 19.8262 70.4197 22.9947 72.4431 25.4773H72.4421L83.6265 39.8129L94.7576 25.5525H94.7492C96.8091 23.0588 98.0468 19.8607 98.0468 16.3736Z" fill="#FF5A5A"/>
<path d="M83.627 22.8789C87.0928 22.8789 89.9023 20.0693 89.9023 16.6035C89.9023 13.1377 87.0928 10.3281 83.627 10.3281C80.1612 10.3281 77.3516 13.1377 77.3516 16.6035C77.3516 20.0693 80.1612 22.8789 83.627 22.8789Z" fill="white"/>
<path d="M2.94585 40.0415C3.10699 40.0823 3.26851 40.1018 3.42749 40.1018C4.29996 40.1018 5.09488 39.513 5.31929 38.6286L5.38648 38.3667C5.65894 37.3227 5.03355 36.2559 3.9898 35.9837C2.94605 35.7114 1.87925 36.3366 1.60679 37.3801C1.58179 37.4758 1.55718 37.5719 1.53296 37.668C1.26773 38.7135 1.90035 39.776 2.94585 40.0415Z" fill="black"/>
<path d="M5.68368 31.303C5.95282 31.4299 6.23622 31.4899 6.51512 31.4899C7.24774 31.4899 7.95008 31.0758 8.28309 30.3694C11.8181 22.8707 17.2677 16.6106 23.8786 12.0643C23.943 12.0975 24.0095 12.1282 24.0788 12.1545L36.0126 16.6946C36.2921 16.801 36.4723 17.0731 36.4616 17.3717C36.453 17.6133 36.4893 17.8547 36.5686 18.0833C37.2124 19.935 38.6253 21.4159 40.445 22.1456C42.2649 22.875 44.3093 22.7807 46.0542 21.887C46.0614 21.8832 46.0686 21.8795 46.0759 21.8756L48.6688 20.5057C51.5524 18.9823 54.8807 19.1723 57.572 21.0151C60.2636 22.8579 61.6454 25.8922 61.268 29.1327L61.244 29.3383C61.0977 30.5946 60.2307 31.5885 59.035 31.8707C57.7436 32.1758 56.2727 32.5262 55.0126 32.8276C52.4585 33.4383 50.4721 35.4961 49.9522 38.0704L48.2761 46.369C47.8815 48.3217 48.363 50.3389 49.5968 51.9034C50.8304 53.4678 52.68 54.4061 54.671 54.4778L56.8219 54.5551C57.1921 54.5684 57.5509 54.652 57.8889 54.8032C58.1479 54.919 58.4186 54.9739 58.685 54.9739C59.4317 54.9737 60.1446 54.5432 60.4692 53.8174C60.9095 52.8327 60.4682 51.6774 59.4835 51.2372C58.6848 50.8801 57.8368 50.6831 56.9626 50.6516L54.8116 50.5743C53.969 50.544 53.1862 50.1469 52.6639 49.4846C52.1419 48.8225 51.9382 47.9688 52.1052 47.1424L53.7813 38.8438C54.0011 37.7555 54.8411 36.8852 55.9212 36.6268C57.1782 36.3262 58.645 35.9768 59.9329 35.6725C62.7046 35.0182 64.7909 32.6543 65.1245 29.7899L65.1485 29.5842C65.6966 24.8772 63.6891 20.469 59.779 17.7918C55.869 15.1151 51.0337 14.8383 46.8442 17.052L44.2634 18.4155C43.5165 18.7948 42.677 18.8321 41.8993 18.5198C41.2028 18.2405 40.6641 17.725 40.3595 17.053C40.2462 15.2666 39.1014 13.6905 37.402 13.0438L28.0727 9.49458C34.6999 5.90122 42.2167 3.90669 50.0001 3.90669C55.0802 3.90669 60.071 4.727 64.8341 6.34517C65.8557 6.69224 66.9647 6.14556 67.3118 5.12407C67.6587 4.10278 67.112 2.99341 66.0907 2.64634C60.9221 0.890674 55.5085 0.000244141 50.0001 0.000244141C40.3335 0.000244141 30.953 2.76372 22.8727 7.99204C15.004 13.0834 8.73719 20.2454 4.74969 28.7036C4.28993 29.6793 4.70789 30.8432 5.68368 31.303Z" fill="black"/>
<path d="M95.6416 34.8193C94.6049 35.1173 94.0063 36.1994 94.3043 37.2361C95.4918 41.3658 96.094 45.6601 96.094 50.0002C96.094 54.7259 95.3819 59.3855 93.978 63.849C93.6543 64.8781 94.226 65.9746 95.2549 66.2982C95.45 66.3595 95.6473 66.3888 95.8416 66.3888C96.6717 66.3888 97.4418 65.8552 97.7041 65.0212C99.2276 60.1777 100 55.124 100 50.0002C100 45.2949 99.3467 40.6373 98.0582 36.1566C97.7602 35.1199 96.678 34.5211 95.6416 34.8193Z" fill="black"/>
<path d="M92.599 72.371C91.775 71.8829 90.5402 72.0208 89.9 73.0952C89.8963 73.1014 89.8926 73.1077 89.8889 73.1141C89.2606 74.1958 89.74 75.3421 90.5666 75.8253C90.8596 75.9965 91.2035 76.0891 91.5541 76.0891C92.1926 76.0891 92.8522 75.7823 93.2617 75.086C93.8961 74.0077 93.4229 72.8588 92.599 72.371Z" fill="black"/>
<path d="M87.1148 80.5767C86.3111 79.8573 85.0763 79.9255 84.3568 80.7294C81.688 83.7111 78.6652 86.3019 75.3826 88.4661C73.1302 87.4491 70.7706 85.038 71.0017 81.2593L72.2341 66.6601C72.3249 65.5853 71.5271 64.6403 70.4523 64.5495C69.3781 64.4622 68.4326 65.2566 68.3417 66.3316L67.1076 80.9521C67.1064 80.9655 67.1054 80.9792 67.1044 80.9927C66.8587 84.8679 68.583 88.4767 71.5677 90.7249C64.987 94.2087 57.5906 96.0939 49.9999 96.0939C47.8747 96.0939 45.757 95.9454 43.6632 95.6556L45.4849 92.3478H47.0785C51.2167 92.3478 54.5833 88.9812 54.5833 84.8429V82.147C54.5833 81.3784 54.823 80.6443 55.2765 80.0237C55.913 79.1528 55.723 77.9308 54.8521 77.2943C53.981 76.6579 52.7591 76.8478 52.1228 77.7189C51.1771 79.013 50.6773 80.5443 50.6773 82.147V84.8429C50.6773 86.8271 49.063 88.4415 47.0787 88.4415H44.331C43.6191 88.4415 42.9636 88.8288 42.6203 89.4525L39.6144 94.9105C35.3988 93.9388 31.329 92.3792 27.5488 90.2665C26.6066 89.7407 25.4171 90.0771 24.891 91.0189C24.3648 91.9607 24.7015 93.1503 25.6431 93.6765C33.0464 97.8136 41.4689 100 50.0001 100C64.2044 100 77.7878 93.9259 87.2675 83.3347C87.9869 82.5308 87.9185 81.296 87.1148 80.5767Z" fill="black"/>
<path d="M83.6264 24.8319C88.1633 24.8319 91.8543 21.1409 91.8543 16.6038C91.8543 12.0669 88.1633 8.37585 83.6264 8.37585C79.0895 8.37585 75.3984 12.0669 75.3984 16.6038C75.3984 21.1407 79.0895 24.8319 83.6264 24.8319ZM83.6264 12.2821C86.0094 12.2821 87.9481 14.2208 87.9481 16.6038C87.9481 18.9868 86.0094 20.9257 83.6264 20.9257C81.2434 20.9257 79.3047 18.9868 79.3047 16.6038C79.3047 14.2208 81.2434 12.2821 83.6264 12.2821Z" fill="black"/>
<path d="M35.0629 71.0191C37.3641 68.1773 38.8238 64.7412 39.2906 61.133L44.4867 68.6217C44.866 69.1684 45.4744 69.4615 46.0932 69.4615C46.4773 69.4615 46.8654 69.3484 47.2049 69.1129C48.0912 68.498 48.3111 67.2811 47.6961 66.3947L39.1451 54.0713C39.056 53.943 38.9531 53.8303 38.8416 53.7305C36.6639 45.2063 28.9197 38.8848 19.7266 38.8848C8.84941 38.8848 0 47.7342 0 58.6113C0 63.1164 1.55801 67.5187 4.38809 71.015C4.39258 71.0211 4.39727 71.0271 4.40195 71.0332L18.1867 88.7018C18.5568 89.1762 19.1248 89.4535 19.7264 89.4535C20.3279 89.4535 20.8959 89.1764 21.266 88.7021L34.985 71.1262C35.0125 71.091 35.0383 71.0555 35.0629 71.0191ZM31.7934 68.867L19.7271 84.3254L7.52051 68.6799C7.5002 68.652 7.4791 68.6248 7.45723 68.5979C5.16738 65.7883 3.90625 62.2418 3.90625 58.6113C3.90625 49.8881 11.0031 42.791 19.7266 42.791C28.45 42.791 35.5469 49.8881 35.5469 58.6113C35.5469 62.2809 34.2621 65.8568 31.9295 68.6803C31.8801 68.74 31.8346 68.8025 31.7934 68.867Z" fill="black"/>
<path d="M19.7266 47.5668C13.4803 47.5668 8.39844 52.6486 8.39844 58.8949C8.39844 65.1412 13.4803 70.223 19.7266 70.223C25.9729 70.223 31.0547 65.1412 31.0547 58.8949C31.0547 52.6486 25.973 47.5668 19.7266 47.5668ZM19.7266 66.3168C15.6342 66.3168 12.3047 62.9873 12.3047 58.8949C12.3047 54.8025 15.6342 51.473 19.7266 51.473C23.8189 51.473 27.1484 54.8025 27.1484 58.8949C27.1484 62.9873 23.8191 66.3168 19.7266 66.3168Z" fill="black"/>
<path d="M70.8908 26.6641C70.8945 26.6688 70.8984 26.6738 70.9021 26.6787L82.0865 41.0141C82.4566 41.4885 83.0246 41.7658 83.6261 41.7658C83.6261 41.7658 83.6261 41.7658 83.6263 41.7658C84.2279 41.7658 84.7959 41.4887 85.166 41.0145L96.297 26.7541C96.321 26.7234 96.3439 26.6924 96.3658 26.6605C98.7105 23.7588 100 20.1127 100 16.3736C100 7.34512 92.6548 0 83.6263 0C74.5978 0 67.2527 7.34512 67.2527 16.3736C67.2527 20.1107 68.5443 23.7627 70.8908 26.6641ZM83.6263 3.90625C90.5009 3.90625 96.0937 9.49922 96.0937 16.3736C96.0937 19.2654 95.0814 22.0832 93.2431 24.3084C93.1972 24.3639 93.1548 24.4215 93.116 24.4809L83.6267 36.6379L74.0175 24.3213C73.9982 24.2949 73.9779 24.2687 73.957 24.2434C72.1527 22.0295 71.1589 19.2346 71.1589 16.3736C71.1589 9.49922 76.7517 3.90625 83.6263 3.90625Z" fill="black"/>
<path d="M37.0985 80.5712L36.2155 80.9884C35.2401 81.4492 34.8231 82.6132 35.2837 83.5886C35.6173 84.2945 36.319 84.7078 37.0511 84.7078C37.3306 84.7078 37.6146 84.6474 37.8841 84.5203L38.7671 84.1031C39.7425 83.6423 40.1595 82.4783 39.6989 81.5029C39.238 80.5277 38.0739 80.1111 37.0985 80.5712Z" fill="black"/>
<path d="M83.6264 49.6289C82.5476 49.6289 81.6732 50.5035 81.6732 51.582C81.6732 51.834 81.659 52.0881 81.6308 52.3369C81.5096 53.4088 82.2805 54.3758 83.3521 54.4971C83.4267 54.5055 83.5006 54.5096 83.5738 54.5096C84.5543 54.5096 85.3996 53.773 85.5121 52.7756C85.5566 52.3814 85.5793 51.9801 85.5793 51.582C85.5795 50.5033 84.7051 49.6289 83.6264 49.6289Z" fill="black"/>
<path d="M69.972 58.2034C68.8933 58.2034 68.0189 59.078 68.0189 60.1565C68.0189 61.235 68.8933 62.1096 69.972 62.1096H70.9486C72.0273 62.1096 72.9017 61.235 72.9017 60.1565C72.9017 59.078 72.0273 58.2034 70.9486 58.2034H69.972Z" fill="black"/>
<path d="M78.4908 57.2416C78.2771 57.3719 78.0533 57.491 77.8255 57.5965C76.8466 58.0494 76.4203 59.2106 76.8734 60.1893C77.2035 60.9026 77.9095 61.3225 78.6472 61.3225C78.9218 61.3225 79.2007 61.2643 79.4664 61.1414C79.8277 60.9742 80.1828 60.7848 80.5222 60.5781C81.4435 60.0172 81.7357 58.8156 81.1748 57.8942C80.6138 56.9731 79.4123 56.6813 78.4908 57.2416Z" fill="black"/>
<path d="M49.036 70.2193L48.5119 71.0435C47.9332 71.9539 48.202 73.1609 49.1123 73.7398C49.4373 73.9465 49.7998 74.0449 50.1582 74.0449C50.8041 74.0449 51.4361 73.7248 51.8082 73.1394L52.3322 72.3152C52.9109 71.4049 52.6422 70.1978 51.7319 69.6189C50.8219 69.0402 49.6147 69.3092 49.036 70.2193Z" fill="black"/>
<path d="M56.4473 62.2022C55.5371 61.6236 54.3301 61.8922 53.7512 62.8024L53.2274 63.6264C52.6487 64.5367 52.9174 65.7438 53.8278 66.3225C54.1528 66.5291 54.5155 66.6277 54.8739 66.6277C55.5198 66.6277 56.1516 66.3076 56.5239 65.7223L57.0477 64.8982C57.6262 63.9877 57.3575 62.7809 56.4473 62.2022Z" fill="black"/>
<path d="M45.0454 76.8173L44.1624 77.2345C43.187 77.6952 42.77 78.8593 43.2306 79.8347C43.5642 80.5405 44.2659 80.9538 44.998 80.9538C45.2775 80.9538 45.5615 80.8935 45.831 80.7663L46.714 80.3491C47.6894 79.8884 48.1064 78.7243 47.6458 77.7489C47.1847 76.7736 46.0206 76.3568 45.0454 76.8173Z" fill="black"/>
<path d="M61.1831 58.2034C60.1044 58.2034 59.23 59.078 59.23 60.1565C59.23 61.235 60.1044 62.1096 61.1831 62.1096H62.1597C63.2384 62.1096 64.1128 61.235 64.1128 60.1565C64.1128 59.078 63.2384 58.2034 62.1597 58.2034H61.1831Z" fill="black"/>
</svg>
